 <svg viewBox="0 0 510 510" width="40px" height="40px" xmlns="http://www.w3.org/2000/svg">
                <defs>
                  <linearGradient id="goldGradient" x1="0%" y1="0%" x2="0%" y2="100%">
                    <stop offset="0%" style="stop-color: #eebe47" />
                    <stop offset="21%" style="stop-color: #ffee96" />
                    <stop offset="45%" style="stop-color: #a2621e" />
                    <stop offset="67%" style="stop-color: #eea54c" />
                    <stop offset="100%" style="stop-color: #eebe47" />
                  </linearGradient>
                  <mask id="slotMask">
                    <rect width="100%" height="100%" fill="white" />
                    <rect x="216" y="400" width="80" height="120" fill="black" />
                  </mask>
                </defs>

                <!-- Corps principal de la bague avec le masque appliqué -->
                <g transform="translate(0, 0)" fill="url(#goldGradient)" mask="url(#slotMask)">
                  <path
                    d="M256,128c-91.75,0-166.4,74.65-166.4,166.4S164.25,460.8,256,460.8s166.4-74.65,166.4-166.4S347.75,128,256,128z M256,435.2c-77.764,0-140.8-63.036-140.8-140.8S178.236,153.6,256,153.6s140.8,63.036,140.8,140.8S333.764,435.2,256,435.2z" />
                  <path
                    d="M384,67.166V25.6C384,11.46,372.54,0,358.4,0H153.6C139.46,0,128,11.46,128,25.6v41.429 C79.019,119.322,25.6,190.114,25.6,281.6C25.6,408.644,128.956,512,256,512s230.4-103.356,230.4-230.4 C486.4,190.089,432.998,119.467,384,67.166z M153.6,25.6h204.8v35.2H153.6V25.6z M256,486.4c-113.109,0-204.8-91.691-204.8-204.8 c0-81.186,48.273-146.202,93.79-195.2h222.029c45.508,48.998,93.781,114.014,93.781,195.2C460.8,394.709,369.109,486.4,256,486.4z" />
                </g>

                <!-- Icône flèche agrandie et repositionnée -->
                <g transform="translate(142, 220) scale(7)">
                  <path
                    fill="url(#goldGradient)"
                    d="M31.154 16.479l0-0.003c0.049-0.123 0.079-0.266 0.083-0.415l0-0.002c0.001-0.021 0.012-0.038 0.012-0.059s-0.011-0.038-0.012-0.059c-0.002-0.035-0.015-0.069-0.020-0.104-0.007-0.058-0.018-0.109-0.031-0.159l0.002 0.008c-0.009-0.063-0.021-0.119-0.037-0.173l0.002 0.009c-0.057-0.122-0.127-0.227-0.212-0.319l0.001 0.001c-0.023-0.027-0.032-0.062-0.058-0.088l-5-5c-0.226-0.227-0.539-0.367-0.885-0.367-0.691 0-1.251 0.56-1.251 1.251 0 0.345 0.14 0.658 0.366 0.884v0l2.867 2.866h-21.965l2.866-2.866c0.225-0.226 0.363-0.537 0.363-0.881 0-0.69-0.56-1.25-1.25-1.25-0.344 0-0.655 0.139-0.881 0.363l-4.999 4.999c-0.012 0.012-0.017 0.028-0.028 0.041-0.092 0.096-0.168 0.208-0.225 0.331l-0.003 0.008-0.013 0.022-0.003 0.005-0 0.004c-0.050 0.129-0.079 0.279-0.079 0.435 0 0.072 0.006 0.142 0.018 0.21l-0.001-0.007c0.007 0.058 0.018 0.108 0.031 0.158l-0.002-0.008c0.009 0.064 0.022 0.119 0.038 0.173l-0.002-0.009c0.066 0.158 0.157 0.293 0.27 0.407l4.999 5c0.226 0.226 0.539 0.366 0.884 0.366 0.691 0 1.251-0.56 1.251-1.251 0-0.346-0.14-0.658-0.367-0.885l-2.866-2.865h21.963l-2.866 2.865c-0.226 0.226-0.366 0.539-0.366 0.884 0 0.691 0.56 1.251 1.251 1.251 0.345 0 0.658-0.14 0.884-0.366l5-5.001c0.012-0.012 0.016-0.029 0.027-0.041 0.087-0.093 0.161-0.201 0.217-0.319l0.003-0.008c0.006-0.013 0.016-0.022 0.021-0.035z" />
                </g>
              </svg>