<svg xmlns="http://www.w3.org/2000/svg" width="498" height="501"><path fill="#c88485" fill-rule="evenodd" d="M93.5 45.75c-2.2 2.063-4.651 4.65-5.446 5.75s1.118-.46 4.25-3.466C97.535 43.014 98.451 42 97.75 42c-.138 0-2.051 1.688-4.25 3.75m295.996-2.743c-.355.573-.218.919.304.768s2.568 1.187 4.548 2.975c4.039 3.647 5.975 4.371 3.057 1.142-3.23-3.574-7.203-6.028-7.909-4.885M100 44.82c0 .799 2.557 3.2 6.531 6.133 1.083.799.19-.439-1.984-2.75-4.153-4.416-4.547-4.709-4.547-3.383m281.793 5.248c-2.589 2.713-4.372 4.932-3.962 4.932s2.96-2.25 5.669-5 4.492-4.969 3.962-4.932-3.08 2.287-5.669 5m-271.665 4.664c1.973 2.49 5.1 5.542 7.39 7.215 1.09.797-.251-.891-2.98-3.75-4.888-5.118-7.096-6.853-4.41-3.465M402 53.33c0 1.019 7.036 7.968 7.548 7.455.229-.228-1.376-2.165-3.566-4.303S402 52.925 402 53.33M81.548 57.52c-2.113 1.935-3.634 3.727-3.38 3.981s2.212-1.329 4.35-3.519c4.81-4.926 4.214-5.21-.97-.462m291.601 1.107c-1.292 1.378-2.16 2.696-1.927 2.929s1.713-.922 3.288-2.566c1.575-1.645 2.442-2.962 1.927-2.929s-1.995 1.189-3.288 2.566M122 66.462c4.079 4.809 5.075 5.796 5.462 5.407.489-.493-2.45-3.893-5.5-6.362l-2.462-1.993zm291-2.132c0 1.019 7.036 7.968 7.548 7.455.229-.228-1.376-2.165-3.566-4.303S413 63.925 413 64.33M69.149 69.627c-1.292 1.378-2.16 2.696-1.927 2.929s1.713-.922 3.288-2.566c1.575-1.645 2.442-2.962 1.927-2.929s-1.995 1.189-3.288 2.566m292.957-.034c-3.191 3.67-2.043 3.994 1.404.397 1.575-1.645 2.411-2.99 1.857-2.99-.553 0-2.021 1.167-3.261 2.593M132 76.543c1.887 2.452 3.005 3.57 5.457 5.457 1.926 1.481 1.926 1.468.053-1.057-1.043-1.406-3.047-3.41-4.453-4.453-2.525-1.873-2.538-1.873-1.057.053m292-1.213c0 1.019 7.036 7.968 7.548 7.455.229-.228-1.376-2.165-3.566-4.303S424 74.925 424 75.33M58.149 80.627c-1.292 1.378-2.16 2.696-1.927 2.929s1.713-.922 3.288-2.566c1.575-1.645 2.442-2.962 1.927-2.929s-1.995 1.189-3.288 2.566m292.957-.034c-3.191 3.67-2.043 3.994 1.404.397 1.575-1.645 2.411-2.99 1.857-2.99-.553 0-2.021 1.167-3.261 2.593M143 87.543c1.887 2.452 3.005 3.57 5.457 5.457 1.926 1.481 1.926 1.468.053-1.057-1.043-1.406-3.047-3.41-4.453-4.453-2.525-1.873-2.538-1.873-1.057.053m292-1.165c0 .904 7.03 7.926 7.481 7.472.191-.193-.419-1.25-1.355-2.35-2.409-2.831-6.126-5.939-6.126-5.122M49.149 89.627c-1.292 1.378-2.16 2.696-1.927 2.929s1.713-.922 3.288-2.566c1.575-1.645 2.442-2.962 1.927-2.929s-1.995 1.189-3.288 2.566m291.92.948c-1.789 1.966-3.06 3.767-2.825 4.003.236.235 2.096-1.373 4.133-3.575S345.685 87 345.201 87s-2.343 1.609-4.132 3.575m-50.599 51.433-45.939 46.008-24.978-24.758c-13.737-13.617-24.654-24.308-24.258-23.758s11.616 11.924 24.935 25.276l24.215 24.276 46.526-46.526C316.561 116.937 337.253 96 336.953 96s-21.216 20.704-46.483 46.008M154.128 98.746c1.863 2.371 3.024 3.495 5.376 5.207 1.098.799.217-.439-1.957-2.75-4.015-4.269-5.919-5.636-3.419-2.457M446 97.392c0 .408 1.616 2.399 3.59 4.425 1.975 2.026 3.141 2.783 2.592 1.683-1.125-2.254-6.182-7.25-6.182-6.108m-406.537 2.726c-.48 1.51-.008 2.728 1.645 4.25l2.318 2.132-1.919-2.306c-1.587-1.908-1.709-2.641-.704-4.25.668-1.069.79-1.944.273-1.944-.518 0-1.244.953-1.613 2.118M44 107.272c0 .686 4.913 5.721 8.022 8.221l2.478 1.993-2.5-2.948c-4.112-4.848-8-8.38-8-7.266m121.546 3.159c.876 1.336 2.799 3.195 4.273 4.129 2.054 1.302 1.757.734-1.272-2.43-4.53-4.733-5.258-5.145-3.001-1.699m285.404-.176c-2.851 2.511-6.501 6.745-5.813 6.745.246 0 2.434-2.025 4.863-4.5 4.687-4.776 5.2-5.987.95-2.245M55 118.272c0 .686 4.913 5.721 8.022 8.221l2.478 1.993-2.5-2.948c-4.112-4.848-8-8.38-8-7.266m121.121 2.652c2.223 3.023 6.879 7.02 6.879 5.906 0-.227-2.114-2.42-4.699-4.872-4.194-3.979-4.428-4.09-2.18-1.034m264.274-.174c-1.666 1.513-3.885 3.875-4.931 5.25s.446.267 3.317-2.462 5.219-5.092 5.219-5.25c0-.649-.721-.156-3.605 2.462M66 129.272c0 .686 4.913 5.721 8.022 8.221l2.478 1.993-2.5-2.948c-4.112-4.848-8-8.38-8-7.266m121.059 2.494c1.959 2.733 6.941 7.015 6.941 5.965 0-.173-2.088-2.321-4.64-4.773-3.9-3.746-4.267-3.936-2.301-1.192m242.904-.511c-1.396 1.235-3.637 3.595-4.981 5.245s-.09.767 2.787-1.962 5.231-5.092 5.231-5.25c0-.587-.561-.224-3.037 1.967M77 140.344c0 .768 6.888 7.656 7.656 7.656.581 0-1.205-2.541-3.16-4.496S77 139.763 77 140.344m342.384 1.099c-1.133.794-3.327 3.157-4.875 5.25-2.591 3.506-2.407 3.415 2.338-1.155 2.834-2.73 5.153-5.092 5.153-5.25 0-.535-.548-.293-2.616 1.155M88 151.467c0 .682 6.962 7.533 7.656 7.533.684 0-1.21-2.49-4.361-5.732-2.102-2.163-3.295-2.815-3.295-1.801m270.861 50.25-50.92 50.717 50.236 50.243c27.63 27.634 50.382 50.097 50.56 49.919s-21.964-22.519-49.206-49.646C332.289 275.824 310 253.092 310 252.435s22.751-23.749 50.558-51.315S410.815 151 410.448 151c-.368 0-23.582 22.823-51.587 50.717m-256.929-36.398c1.887 2.008 3.62 3.463 3.85 3.233.719-.72-.72-2.375-4.062-4.671l-3.22-2.212zM113 176.5c3.548 3.66 4.603 4.357 3.41 2.25-1.323-2.336-4.755-5.75-5.78-5.75-.562 0 .504 1.575 2.37 3.5m8 7.13c0 .538 1.631 2.528 3.625 4.424 2.189 2.08 3.216 2.653 2.592 1.446-1.313-2.54-6.217-7.171-6.217-5.87m10.786 10.87c1.286 2.497 6.038 7.01 6.692 6.356.267-.267-1.362-2.257-3.619-4.421s-3.64-3.035-3.073-1.935m10.986 11c.575 1.1 2.272 3.125 3.772 4.5 2.241 2.054 2.541 2.143 1.684.5-.575-1.1-2.272-3.125-3.772-4.5-2.241-2.054-2.541-2.143-1.684-.5m11.1 11.261c1.026 1.916 3.754 4.469 6.128 5.734.825.439-.279-1.067-2.453-3.348-4.339-4.552-5.098-5.045-3.675-2.386m10.91 10.75c1.259 2.452 5.049 5.991 5.709 5.331.264-.263-1.146-2.023-3.131-3.91-2.225-2.115-3.215-2.66-2.578-1.421m11.419 11.666c.795 1.197 2.538 2.858 3.872 3.692 1.852 1.157 1.611.641-1.019-2.177-3.881-4.158-5.003-4.754-2.853-1.515m-65.016 81.625L37.87 393.501l3.311 3c2.528 2.289 2.78 2.392 1.065.435-1.235-1.411-2.248-2.986-2.251-3.5-.002-.515 32.735-33.426 72.75-73.136s72.53-72.199 72.255-72.198-33.492 32.716-73.815 72.7m64.583 63.929-72.731 72.73-5.018-4.943C95.258 449.8 93 447.928 93 448.359s.589 1.314 1.309 1.962c.721.649 2.982 2.741 5.026 4.65l3.717 3.472 72.727-72.722C215.778 345.725 248.961 313 249.517 313c.557 0 20.344 19.35 43.971 43 23.628 23.65 43.194 43 43.481 43S317.92 379.425 294 355.5 250.056 312 249.503 312s-33.734 32.729-73.735 72.731M420 364.5c5.755 5.775 10.829 10.5 11.276 10.5s-3.943-4.725-9.753-10.5-10.884-10.5-11.275-10.5c-.392 0 3.997 4.725 9.752 10.5m16.5 16.5c2.709 2.75 5.325 5 5.814 5s-1.409-2.25-4.218-5c-2.808-2.75-5.424-5-5.813-5-.39 0 1.508 2.25 4.217 5m12.015 12.015 5.951 6.014-29.207 29.207-29.206 29.207-3.324-3.221c-1.828-1.772-3.642-3.222-4.029-3.222-.388 0 1.126 1.655 3.364 3.677l4.07 3.677 29.433-29.421c16.188-16.181 29.423-29.648 29.411-29.927-.039-.899-10.78-12.006-11.611-12.006-.442 0 1.874 2.707 5.148 6.015m-403.009 8.991c.998 1.104 2.021 1.8 2.274 1.548.541-.542-2.309-3.554-3.364-3.554-.399 0 .091.903 1.09 2.006m293 0c.998 1.104 2.021 1.8 2.274 1.548.541-.542-2.309-3.554-3.364-3.554-.399 0 .091.903 1.09 2.006M49 404.358c0 1.031 5.029 5.947 5.55 5.425.236-.236-.916-1.718-2.56-3.293S49 403.955 49 404.358m8.5 9.518c1.65 1.58 3.203 2.689 3.452 2.463.559-.506-4.564-5.339-5.658-5.338-.437.001.556 1.294 2.206 2.875m292.006-.87c.998 1.104 2.021 1.8 2.274 1.548.541-.542-2.309-3.554-3.364-3.554-.399 0 .091.903 1.09 2.006m-282 11c.998 1.104 2.021 1.8 2.274 1.548.541-.542-2.309-3.554-3.364-3.554-.399 0 .091.903 1.09 2.006m293 0c.998 1.104 2.021 1.8 2.274 1.548.541-.542-2.309-3.554-3.364-3.554-.399 0 .091.903 1.09 2.006M71 426.416c0 1.055 3.012 3.905 3.554 3.364.252-.253-.444-1.276-1.548-2.274-1.103-.999-2.006-1.489-2.006-1.09m7.506 8.59c.998 1.104 2.021 1.8 2.274 1.548.541-.542-2.309-3.554-3.364-3.554-.399 0 .091.903 1.09 2.006m293 0c.998 1.104 2.021 1.8 2.274 1.548.541-.542-2.309-3.554-3.364-3.554-.399 0 .091.903 1.09 2.006M82 437.416c0 1.055 3.012 3.905 3.554 3.364.252-.253-.444-1.276-1.548-2.274-1.103-.999-2.006-1.489-2.006-1.09m293 0c0 1.055 3.012 3.905 3.554 3.364.252-.253-.444-1.276-1.548-2.274-1.103-.999-2.006-1.489-2.006-1.09m-285.494 8.59c.998 1.104 2.032 1.789 2.297 1.524.672-.672-1.822-3.53-3.08-3.53-.568 0-.216.903.783 2.006m293 0c.998 1.104 2.021 1.8 2.274 1.548.541-.542-2.309-3.554-3.364-3.554-.399 0 .091.903 1.09 2.006"/><path fill="#ba433d" fill-rule="evenodd" d="M68.73 71.592C52.928 87.318 40 100.69 40 101.307s32.625 33.581 72.5 73.251 72.5 72.607 72.5 73.19c0 .584-32.625 33.383-72.5 72.886-39.875 39.504-72.5 72.34-72.5 72.97 0 .94 38.008 39.589 57.899 58.876l5.136 4.98 72.735-72.73c40.004-40.002 73.216-72.73 73.803-72.73s32.133 31.162 70.101 69.25 70.684 70.811 72.703 72.719l3.671 3.47 28.978-28.965c15.937-15.93 28.858-29.323 28.712-29.761s-33.022-33.537-73.058-73.554l-72.793-72.758 73.056-72.592C421.125 139.883 454 106.922 454 106.562c0-1.227-63.171-63.724-63.837-63.155-.365.311-33.296 33.217-73.18 73.126l-72.518 72.56-73.138-73.046C131.101 75.871 98.024 43 97.824 43S84.531 55.867 68.73 71.592"/></svg>