<svg xmlns="http://www.w3.org/2000/svg" width="498" height="501" viewBox="0 0 498 501" version="1.1"><path d="M 93.500 45.750 C 91.300 47.813, 88.849 50.400, 88.054 51.500 C 87.259 52.600, 89.172 51.040, 92.304 48.034 C 97.535 43.014, 98.451 42, 97.750 42 C 97.612 42, 95.699 43.688, 93.500 45.750 M 389.496 43.007 C 389.141 43.580, 389.278 43.926, 389.800 43.775 C 390.322 43.624, 392.368 44.962, 394.348 46.750 C 398.387 50.397, 400.323 51.121, 397.405 47.892 C 394.175 44.318, 390.202 41.864, 389.496 43.007 M 100 44.820 C 100 45.619, 102.557 48.020, 106.531 50.953 C 107.614 51.752, 106.721 50.514, 104.547 48.203 C 100.394 43.787, 100 43.494, 100 44.820 M 381.793 50.068 C 379.204 52.781, 377.421 55, 377.831 55 C 378.240 55, 380.791 52.750, 383.500 50 C 386.209 47.250, 387.992 45.031, 387.462 45.068 C 386.933 45.105, 384.382 47.355, 381.793 50.068 M 110.128 54.732 C 112.101 57.222, 115.228 60.274, 117.518 61.947 C 118.608 62.744, 117.267 61.056, 114.538 58.197 C 109.650 53.079, 107.442 51.344, 110.128 54.732 M 402 53.330 C 402 54.349, 409.036 61.298, 409.548 60.785 C 409.777 60.557, 408.172 58.620, 405.982 56.482 C 403.792 54.344, 402 52.925, 402 53.330 M 81.548 57.520 C 79.435 59.455, 77.914 61.247, 78.168 61.501 C 78.422 61.755, 80.380 60.172, 82.518 57.982 C 87.328 53.056, 86.732 52.772, 81.548 57.520 M 373.149 58.627 C 371.857 60.005, 370.989 61.323, 371.222 61.556 C 371.455 61.789, 372.935 60.634, 374.510 58.990 C 376.085 57.345, 376.952 56.028, 376.437 56.061 C 375.922 56.095, 374.442 57.250, 373.149 58.627 M 122 66.462 C 126.079 71.271, 127.075 72.258, 127.462 71.869 C 127.951 71.376, 125.012 67.976, 121.962 65.507 L 119.500 63.514 122 66.462 M 413 64.330 C 413 65.349, 420.036 72.298, 420.548 71.785 C 420.777 71.557, 419.172 69.620, 416.982 67.482 C 414.792 65.344, 413 63.925, 413 64.330 M 69.149 69.627 C 67.857 71.005, 66.989 72.323, 67.222 72.556 C 67.455 72.789, 68.935 71.634, 70.510 69.990 C 72.085 68.345, 72.952 67.028, 72.437 67.061 C 71.922 67.095, 70.442 68.250, 69.149 69.627 M 362.106 69.593 C 358.915 73.263, 360.063 73.587, 363.510 69.990 C 365.085 68.345, 365.921 67, 365.367 67 C 364.814 67, 363.346 68.167, 362.106 69.593 M 132 76.543 C 133.887 78.995, 135.005 80.113, 137.457 82 C 139.383 83.481, 139.383 83.468, 137.510 80.943 C 136.467 79.537, 134.463 77.533, 133.057 76.490 C 130.532 74.617, 130.519 74.617, 132 76.543 M 424 75.330 C 424 76.349, 431.036 83.298, 431.548 82.785 C 431.777 82.557, 430.172 80.620, 427.982 78.482 C 425.792 76.344, 424 74.925, 424 75.330 M 58.149 80.627 C 56.857 82.005, 55.989 83.323, 56.222 83.556 C 56.455 83.789, 57.935 82.634, 59.510 80.990 C 61.085 79.345, 61.952 78.028, 61.437 78.061 C 60.922 78.095, 59.442 79.250, 58.149 80.627 M 351.106 80.593 C 347.915 84.263, 349.063 84.587, 352.510 80.990 C 354.085 79.345, 354.921 78, 354.367 78 C 353.814 78, 352.346 79.167, 351.106 80.593 M 143 87.543 C 144.887 89.995, 146.005 91.113, 148.457 93 C 150.383 94.481, 150.383 94.468, 148.510 91.943 C 147.467 90.537, 145.463 88.533, 144.057 87.490 C 141.532 85.617, 141.519 85.617, 143 87.543 M 435 86.378 C 435 87.282, 442.030 94.304, 442.481 93.850 C 442.672 93.657, 442.062 92.600, 441.126 91.500 C 438.717 88.669, 435 85.561, 435 86.378 M 49.149 89.627 C 47.857 91.005, 46.989 92.323, 47.222 92.556 C 47.455 92.789, 48.935 91.634, 50.510 89.990 C 52.085 88.345, 52.952 87.028, 52.437 87.061 C 51.922 87.095, 50.442 88.250, 49.149 89.627 M 341.069 90.575 C 339.280 92.541, 338.009 94.342, 338.244 94.578 C 338.480 94.813, 340.340 93.205, 342.377 91.003 C 344.414 88.801, 345.685 87, 345.201 87 C 344.717 87, 342.858 88.609, 341.069 90.575 M 290.470 142.008 L 244.531 188.016 219.553 163.258 C 205.816 149.641, 194.899 138.950, 195.295 139.500 C 195.691 140.050, 206.911 151.424, 220.230 164.776 L 244.445 189.052 290.971 142.526 C 316.561 116.937, 337.253 96, 336.953 96 C 336.654 96, 315.737 116.704, 290.470 142.008 M 154.128 98.746 C 155.991 101.117, 157.152 102.241, 159.504 103.953 C 160.602 104.752, 159.721 103.514, 157.547 101.203 C 153.532 96.934, 151.628 95.567, 154.128 98.746 M 446 97.392 C 446 97.800, 447.616 99.791, 449.590 101.817 C 451.565 103.843, 452.731 104.600, 452.182 103.500 C 451.057 101.246, 446 96.250, 446 97.392 M 39.463 100.118 C 38.983 101.628, 39.455 102.846, 41.108 104.368 L 43.426 106.500 41.507 104.194 C 39.920 102.286, 39.798 101.553, 40.803 99.944 C 41.471 98.875, 41.593 98, 41.076 98 C 40.558 98, 39.832 98.953, 39.463 100.118 M 44 107.272 C 44 107.958, 48.913 112.993, 52.022 115.493 L 54.500 117.486 52 114.538 C 47.888 109.690, 44 106.158, 44 107.272 M 165.546 110.431 C 166.422 111.767, 168.345 113.626, 169.819 114.560 C 171.873 115.862, 171.576 115.294, 168.547 112.130 C 164.017 107.397, 163.289 106.985, 165.546 110.431 M 450.950 110.255 C 448.099 112.766, 444.449 117, 445.137 117 C 445.383 117, 447.571 114.975, 450 112.500 C 454.687 107.724, 455.200 106.513, 450.950 110.255 M 55 118.272 C 55 118.958, 59.913 123.993, 63.022 126.493 L 65.500 128.486 63 125.538 C 58.888 120.690, 55 117.158, 55 118.272 M 176.121 120.924 C 178.344 123.947, 183 127.944, 183 126.830 C 183 126.603, 180.886 124.410, 178.301 121.958 C 174.107 117.979, 173.873 117.868, 176.121 120.924 M 440.395 120.750 C 438.729 122.263, 436.510 124.625, 435.464 126 C 434.418 127.375, 435.910 126.267, 438.781 123.538 C 441.651 120.808, 444 118.446, 444 118.288 C 444 117.639, 443.279 118.132, 440.395 120.750 M 66 129.272 C 66 129.958, 70.913 134.993, 74.022 137.493 L 76.500 139.486 74 136.538 C 69.888 131.690, 66 128.158, 66 129.272 M 187.059 131.766 C 189.018 134.499, 194 138.781, 194 137.731 C 194 137.558, 191.912 135.410, 189.360 132.958 C 185.460 129.212, 185.093 129.022, 187.059 131.766 M 429.963 131.255 C 428.567 132.490, 426.326 134.850, 424.982 136.500 C 423.638 138.150, 424.892 137.267, 427.769 134.538 C 430.646 131.808, 433 129.446, 433 129.288 C 433 128.701, 432.439 129.064, 429.963 131.255 M 77 140.344 C 77 141.112, 83.888 148, 84.656 148 C 85.237 148, 83.451 145.459, 81.496 143.504 C 79.541 141.549, 77 139.763, 77 140.344 M 419.384 141.443 C 418.251 142.237, 416.057 144.600, 414.509 146.693 C 411.918 150.199, 412.102 150.108, 416.847 145.538 C 419.681 142.808, 422 140.446, 422 140.288 C 422 139.753, 421.452 139.995, 419.384 141.443 M 88 151.467 C 88 152.149, 94.962 159, 95.656 159 C 96.340 159, 94.446 156.510, 91.295 153.268 C 89.193 151.105, 88 150.453, 88 151.467 M 358.861 201.717 L 307.941 252.434 358.177 302.677 C 385.807 330.311, 408.559 352.774, 408.737 352.596 C 408.916 352.417, 386.773 330.077, 359.531 302.950 C 332.289 275.824, 310 253.092, 310 252.435 C 310 251.778, 332.751 228.686, 360.558 201.120 C 388.364 173.554, 410.815 151, 410.448 151 C 410.080 151, 386.866 173.823, 358.861 201.717 M 101.932 165.319 C 103.819 167.327, 105.552 168.782, 105.782 168.552 C 106.501 167.832, 105.062 166.177, 101.720 163.881 L 98.500 161.669 101.932 165.319 M 113 176.500 C 116.548 180.160, 117.603 180.857, 116.410 178.750 C 115.087 176.414, 111.655 173, 110.630 173 C 110.068 173, 111.134 174.575, 113 176.500 M 121 183.630 C 121 184.168, 122.631 186.158, 124.625 188.054 C 126.814 190.134, 127.841 190.707, 127.217 189.500 C 125.904 186.960, 121 182.329, 121 183.630 M 131.786 194.500 C 133.072 196.997, 137.824 201.510, 138.478 200.856 C 138.745 200.589, 137.116 198.599, 134.859 196.435 C 132.602 194.271, 131.219 193.400, 131.786 194.500 M 142.772 205.500 C 143.347 206.600, 145.044 208.625, 146.544 210 C 148.785 212.054, 149.085 212.143, 148.228 210.500 C 147.653 209.400, 145.956 207.375, 144.456 206 C 142.215 203.946, 141.915 203.857, 142.772 205.500 M 153.872 216.761 C 154.898 218.677, 157.626 221.230, 160 222.495 C 160.825 222.934, 159.721 221.428, 157.547 219.147 C 153.208 214.595, 152.449 214.102, 153.872 216.761 M 164.782 227.511 C 166.041 229.963, 169.831 233.502, 170.491 232.842 C 170.755 232.579, 169.345 230.819, 167.360 228.932 C 165.135 226.817, 164.145 226.272, 164.782 227.511 M 176.201 239.177 C 176.996 240.374, 178.739 242.035, 180.073 242.869 C 181.925 244.026, 181.684 243.510, 179.054 240.692 C 175.173 236.534, 174.051 235.938, 176.201 239.177 M 111.185 320.802 L 37.870 393.501 41.181 396.501 C 43.709 398.790, 43.961 398.893, 42.246 396.936 C 41.011 395.525, 39.998 393.950, 39.995 393.436 C 39.993 392.921, 72.730 360.010, 112.745 320.300 C 152.760 280.590, 185.275 248.101, 185 248.102 C 184.725 248.103, 151.508 280.818, 111.185 320.802 M 175.768 384.731 L 103.037 457.461 98.019 452.518 C 95.258 449.800, 93 447.928, 93 448.359 C 93 448.790, 93.589 449.673, 94.309 450.321 C 95.030 450.970, 97.291 453.062, 99.335 454.971 L 103.052 458.443 175.779 385.721 C 215.778 345.725, 248.961 313, 249.517 313 C 250.074 313, 269.861 332.350, 293.488 356 C 317.116 379.650, 336.682 399, 336.969 399 C 337.256 399, 317.920 379.425, 294 355.500 C 270.080 331.575, 250.056 312, 249.503 312 C 248.951 312, 215.769 344.729, 175.768 384.731 M 420 364.500 C 425.755 370.275, 430.829 375, 431.276 375 C 431.722 375, 427.333 370.275, 421.523 364.500 C 415.713 358.725, 410.639 354, 410.248 354 C 409.856 354, 414.245 358.725, 420 364.500 M 436.500 381 C 439.209 383.750, 441.825 386, 442.314 386 C 442.803 386, 440.905 383.750, 438.096 381 C 435.288 378.250, 432.672 376, 432.283 376 C 431.893 376, 433.791 378.250, 436.500 381 M 448.515 393.015 L 454.466 399.029 425.259 428.236 L 396.053 457.443 392.729 454.222 C 390.901 452.450, 389.087 451, 388.700 451 C 388.312 451, 389.826 452.655, 392.064 454.677 L 396.134 458.354 425.567 428.933 C 441.755 412.752, 454.990 399.285, 454.978 399.006 C 454.939 398.107, 444.198 387, 443.367 387 C 442.925 387, 445.241 389.707, 448.515 393.015 M 45.506 402.006 C 46.504 403.110, 47.527 403.806, 47.780 403.554 C 48.321 403.012, 45.471 400, 44.416 400 C 44.017 400, 44.507 400.903, 45.506 402.006 M 338.506 402.006 C 339.504 403.110, 340.527 403.806, 340.780 403.554 C 341.321 403.012, 338.471 400, 337.416 400 C 337.017 400, 337.507 400.903, 338.506 402.006 M 49 404.358 C 49 405.389, 54.029 410.305, 54.550 409.783 C 54.786 409.547, 53.634 408.065, 51.990 406.490 C 50.345 404.915, 49 403.955, 49 404.358 M 57.500 413.876 C 59.150 415.456, 60.703 416.565, 60.952 416.339 C 61.511 415.833, 56.388 411, 55.294 411.001 C 54.857 411.002, 55.850 412.295, 57.500 413.876 M 349.506 413.006 C 350.504 414.110, 351.527 414.806, 351.780 414.554 C 352.321 414.012, 349.471 411, 348.416 411 C 348.017 411, 348.507 411.903, 349.506 413.006 M 67.506 424.006 C 68.504 425.110, 69.527 425.806, 69.780 425.554 C 70.321 425.012, 67.471 422, 66.416 422 C 66.017 422, 66.507 422.903, 67.506 424.006 M 360.506 424.006 C 361.504 425.110, 362.527 425.806, 362.780 425.554 C 363.321 425.012, 360.471 422, 359.416 422 C 359.017 422, 359.507 422.903, 360.506 424.006 M 71 426.416 C 71 427.471, 74.012 430.321, 74.554 429.780 C 74.806 429.527, 74.110 428.504, 73.006 427.506 C 71.903 426.507, 71 426.017, 71 426.416 M 78.506 435.006 C 79.504 436.110, 80.527 436.806, 80.780 436.554 C 81.321 436.012, 78.471 433, 77.416 433 C 77.017 433, 77.507 433.903, 78.506 435.006 M 371.506 435.006 C 372.504 436.110, 373.527 436.806, 373.780 436.554 C 374.321 436.012, 371.471 433, 370.416 433 C 370.017 433, 370.507 433.903, 371.506 435.006 M 82 437.416 C 82 438.471, 85.012 441.321, 85.554 440.780 C 85.806 440.527, 85.110 439.504, 84.006 438.506 C 82.903 437.507, 82 437.017, 82 437.416 M 375 437.416 C 375 438.471, 378.012 441.321, 378.554 440.780 C 378.806 440.527, 378.110 439.504, 377.006 438.506 C 375.903 437.507, 375 437.017, 375 437.416 M 89.506 446.006 C 90.504 447.110, 91.538 447.795, 91.803 447.530 C 92.475 446.858, 89.981 444, 88.723 444 C 88.155 444, 88.507 444.903, 89.506 446.006 M 382.506 446.006 C 383.504 447.110, 384.527 447.806, 384.780 447.554 C 385.321 447.012, 382.471 444, 381.416 444 C 381.017 444, 381.507 444.903, 382.506 446.006" stroke="none" fill="#c88485" fill-rule="evenodd"/><path d="M 68.730 71.592 C 52.928 87.318, 40 100.690, 40 101.307 C 40 101.924, 72.625 134.888, 112.500 174.558 C 152.375 214.229, 185 247.165, 185 247.748 C 185 248.332, 152.375 281.131, 112.500 320.634 C 72.625 360.138, 40 392.974, 40 393.604 C 40 394.544, 78.008 433.193, 97.899 452.480 L 103.035 457.460 175.770 384.730 C 215.774 344.728, 248.986 312, 249.573 312 C 250.161 312, 281.706 343.162, 319.674 381.250 C 357.642 419.337, 390.358 452.061, 392.377 453.969 L 396.048 457.439 425.026 428.474 C 440.963 412.544, 453.884 399.151, 453.738 398.713 C 453.592 398.276, 420.716 365.176, 380.680 325.159 L 307.887 252.401 380.943 179.809 C 421.125 139.883, 454 106.922, 454 106.562 C 454 105.335, 390.829 42.838, 390.163 43.407 C 389.798 43.718, 356.867 76.624, 316.983 116.533 L 244.465 189.093 171.327 116.047 C 131.101 75.871, 98.024 43, 97.824 43 C 97.624 43, 84.531 55.867, 68.730 71.592" stroke="none" fill="#ba433d" fill-rule="evenodd"/></svg>