<svg xmlns="http://www.w3.org/2000/svg" xml:space="preserve" width="40" height="40" viewBox="0 0 256 256"><g style="stroke:none;stroke-width:0;stroke-dasharray:none;stroke-linecap:butt;stroke-linejoin:miter;stroke-miterlimit:10;fill:none;fill-rule:nonzero;opacity:1" transform="translate(1.407 1.407)scale(2.81)"><path d="M72.975 58.994h-41.12a3.5 3.5 0 0 1-3.347-2.477L15.199 13.006H3.5a3.5 3.5 0 1 1 0-7h14.289a3.5 3.5 0 0 1 3.347 2.476l13.309 43.512h36.204l10.585-25.191h-6.021a3.5 3.5 0 1 1 0-7H86.5a3.5 3.5 0 0 1 3.227 4.856L76.201 56.85a3.5 3.5 0 0 1-3.226 2.144" style="stroke:none;stroke-width:1;stroke-dasharray:none;stroke-linecap:butt;stroke-linejoin:miter;stroke-miterlimit:10;fill:#fff;fill-rule:nonzero;opacity:1"/><circle cx="28.88" cy="74.33" r="6.16" style="stroke:none;stroke-width:1;stroke-dasharray:none;stroke-linecap:butt;stroke-linejoin:miter;stroke-miterlimit:10;fill:#fff;fill-rule:nonzero;opacity:1"/><circle cx="74.59" cy="74.33" r="6.16" style="stroke:none;stroke-width:1;stroke-dasharray:none;stroke-linecap:butt;stroke-linejoin:miter;stroke-miterlimit:10;fill:#fff;fill-rule:nonzero;opacity:1"/><path d="M62.278 19.546H52.237V9.506a3.5 3.5 0 1 0-7 0v10.04h-10.04a3.5 3.5 0 1 0 0 7h10.04v10.04a3.5 3.5 0 1 0 7 0v-10.04h10.041a3.5 3.5 0 1 0 0-7" style="stroke:none;stroke-width:1;stroke-dasharray:none;stroke-linecap:butt;stroke-linejoin:miter;stroke-miterlimit:10;fill:#fff;fill-rule:nonzero;opacity:1"/></g></svg>