<svg xmlns="http://www.w3.org/2000/svg" data-name="01 Particles / 02 Logos / Carriers / Default / chronopost" viewBox="0 0 128 48"><defs><linearGradient id="a" x1="-.004" x2="1.014" y1=".501" y2=".501" gradientUnits="objectBoundingBox"><stop offset="0" stop-color="#006caf"/><stop offset=".332" stop-color="#0081c5"/><stop offset=".733" stop-color="#0095da"/><stop offset="1" stop-color="#009ce1"/></linearGradient></defs><g data-name="01 Particles / 02 Logos / Carriers / Default / chronopost"><path d="M0 0h128v48H0z" data-name="Carrier rectangle" style="fill:none"/><path d="M16.173 12.25h-.346l-.605-.35a.17.17 0 0 1-.173-.175v-.963c0-.175 0-.175.173-.35l7.265-4.55L11.935 0h-.692L.605 5.863l11.935 7c.173 0 .173.175.173.35v10.15c0 .175 0 .175-.173.35l-.605.35h-.346l-.605-.35c-.173 0-.173-.175-.173-.35V14.35a.17.17 0 0 0-.173-.175L0 7.963v12.075a1.6 1.6 0 0 0 .346.788l10.724 6.386c.173 0 .173.175.346.175s.346 0 .346-.175l10.724-6.387a.97.97 0 0 0 .346-.788V7.963z" style="fill:url(#a)" transform="translate(0 10)"/><path d="M62.443 18.9H59.68V5.338A13.3 13.3 0 0 1 64 4.375c3.31 0 5.621 2.087 5.621 5.075 0 3.392-2.049 5.338-5.621 5.338V12.6a2.62 2.62 0 0 0 2.034-.836 3.45 3.45 0 0 0 .733-2.314A2.558 2.558 0 0 0 64 6.65a2.2 2.2 0 0 0-1.557.35zM5.276 15.4A5.077 5.077 0 0 1 0 10.063a5.08 5.08 0 0 1 5.276-5.338 4.2 4.2 0 0 1 2.768.613v2.624A3.57 3.57 0 0 0 5.535 7a2.558 2.558 0 0 0-2.767 2.8 2.558 2.558 0 0 0 2.767 2.8 7.7 7.7 0 0 0 1.515-.2h.014a5.3 5.3 0 0 1 .98-.146v2.538l-.252.077-.058.018-.082.026a8 8 0 0 1-2.376.487m89.424-.263c-2.87 0-4.324-1.384-4.324-4.112V.962h2.767v3.763h3.46v2.188h-3.46v4.112c0 .986.712 1.575 1.9 1.575a3.1 3.1 0 0 0 1.816-.35v2.538a5.5 5.5 0 0 1-2.159.349m-9.6 0a6.14 6.14 0 0 1-2.974-.875h.205v-2.537a4.72 4.72 0 0 0 3.114 1.225 1.093 1.093 0 0 0 1.211-.963c0-.373-.422-.633-1.556-.962-2.212-.358-3.114-1.271-3.114-3.15a2.87 2.87 0 0 1 1.049-2.4 4.32 4.32 0 0 1 2.67-.754 4.74 4.74 0 0 1 2.767.613v2.541a4.83 4.83 0 0 0-2.767-.962c-.815 0-1.211.315-1.211.962 0 .32.2.592 1.211.962a4.9 4.9 0 0 1 2.67.985 2.73 2.73 0 0 1 .789 2.165c.004 2.323-2.096 3.15-4.064 3.15m-9.341-.087a5.077 5.077 0 0 1-5.276-5.337 5.276 5.276 0 1 1 10.552 0 5.077 5.077 0 0 1-5.273 5.337Zm0-8.137c-1.641 0-2.508.968-2.508 2.8a2.55 2.55 0 0 0 2.508 2.8c1.641 0 2.508-.968 2.508-2.8.003-1.78-.911-2.8-2.505-2.8ZM53.448 15.05a5.077 5.077 0 0 1-5.275-5.337 5.276 5.276 0 1 1 10.551 0 5.077 5.077 0 0 1-5.276 5.337m0-8.137c-1.64 0-2.507.968-2.507 2.8a2.55 2.55 0 0 0 2.507 2.8c1.641 0 2.508-.968 2.508-2.8a2.6 2.6 0 0 0-2.508-2.8M31.654 15.05a5.077 5.077 0 0 1-5.276-5.337 5.08 5.08 0 0 1 5.276-5.338 5.08 5.08 0 0 1 5.276 5.338 5.077 5.077 0 0 1-5.276 5.337m0-8.137c-1.641 0-2.508.968-2.508 2.8a2.55 2.55 0 0 0 2.508 2.8c1.641 0 2.508-.968 2.508-2.8 0-1.78-.914-2.8-2.508-2.8m8.995 7.876h-2.422V5.338a11.5 11.5 0 0 1 4.673-.963 4.72 4.72 0 0 1 3.2.876 4.04 4.04 0 0 1 1.124 3.237v6.3h-2.767v-6.3c0-.986-.711-1.575-1.9-1.575a3.53 3.53 0 0 0-1.9.349v7.526Zm-17.73 0h-2.768v-6.3a3.98 3.98 0 0 1 1.221-3.237 4.72 4.72 0 0 1 3.1-.876 4 4 0 0 1 .943.154 5.3 5.3 0 0 0 1.306.2v2.532a3.9 3.9 0 0 0-1.9-.349c-1.388 0-1.9.427-1.9 1.575v6.3Zm-6.742 0v-6.3c0-.986-.711-1.575-1.9-1.575a3.53 3.53 0 0 0-1.9.349v7.526H9.6V0h3.113v4.725a5 5 0 0 0 .964-.142h.026a7.7 7.7 0 0 1 1.515-.2 3.75 3.75 0 0 1 3.719 4.113v6.3Z" data-name="Shape" style="fill:#3c3c3b" transform="translate(30.443 14.9)"/></g></svg>