<svg xmlns="http://www.w3.org/2000/svg" width="800" height="800" viewBox="0 0 32 32"><path fill="#000" fill-rule="evenodd" d="M26 17h2v-2h-2zM16 30C8.268 30 2 23.732 2 16 2 8.269 8.268 2 16 2s14 6.269 14 14c0 7.732-6.268 14-14 14m0-30C7.163 0 0 7.164 0 16s7.163 16 16 16 16-7.163 16-16S24.837 0 16 0m6.076 8.273L23.46 9.66l1.384-1.387-1.384-1.386zm-.293 14.505 1.414 1.414 1.414-1.414-1.414-1.414zM16 4a1 1 0 0 0-1 1v10.023H7a1 1 0 0 0 0 2h9c.553 0 1-.447 1-.999V5a1 1 0 0 0-1-1M9.692 8.323 8.278 6.909 6.864 8.323l1.414 1.414zM6.733 22.832l1.384 1.387 1.384-1.387-1.384-1.387zM15 28h2v-2h-2z"/></svg>