<svg id="_01_Particles_02_Logos_Carriers_Default_colissimo" data-name="01 Particles / 02 Logos / Carriers / Default / colissimo" xmlns="http://www.w3.org/2000/svg" xmlns:xlink="http://www.w3.org/1999/xlink" viewBox="0 0 128 48">
  <defs>
    <style>
      .cls-1 {
        fill: none;
      }

      .cls-2 {
        fill: url(#linear-gradient);
      }

      .cls-3 {
        fill: #3c3c3b;
      }
    </style>
    <linearGradient id="linear-gradient" x1="0.012" y1="0.75" x2="0.971" y2="0.24" gradientUnits="objectBoundingBox">
      <stop offset="0" stop-color="#eb6608"/>
      <stop offset="0.19" stop-color="#ec6c08"/>
      <stop offset="0.437" stop-color="#ef7c07"/>
      <stop offset="0.717" stop-color="#f49706"/>
      <stop offset="1" stop-color="#faba05"/>
    </linearGradient>
  </defs>
  <rect id="Carrier_rectangle" data-name="Carrier rectangle" class="cls-1" width="128" height="48"/>
  <g id="colissimo" transform="translate(2 8)">
    <path id="Shape" class="cls-2" d="M18.661,14.154a.373.373,0,0,1-.491,0l-.737-.492-.123-.123h0c0-.123-.123-.123-.123-.246v-.862c0-.123.123-.369.246-.369L26.15,6.892,13.873.123A.737.737,0,0,0,13.382,0a.737.737,0,0,0-.491.123L.614,6.892l13.75,8c.123.123.246.246.246.369V26.954c0,.123-.123.369-.246.369l-.737.369h-.491l-.737-.369c-.123-.123-.246-.246-.246-.369V16.492c0-.123-.123-.123-.123-.246L0,9.354V23.262a1.037,1.037,0,0,0,.491.862l12.523,7.385a.737.737,0,0,0,.491.123A.737.737,0,0,0,14,31.508l12.523-7.385a1.037,1.037,0,0,0,.491-.862V9.354Z" transform="translate(0 0.369)"/>
    <g id="Group" transform="translate(34.376 7.385)">
      <path id="Shape-2" data-name="Shape" class="cls-3" d="M9.085.862A5.659,5.659,0,0,0,5.893,0,5.613,5.613,0,0,0,0,5.908c0,3.569,2.333,5.908,6.016,5.908a6.359,6.359,0,0,0,3.315-.862V8.123a4.911,4.911,0,0,1-2.824.985,3.066,3.066,0,0,1-3.315-3.2,3.032,3.032,0,0,1,3.192-3.2,4.175,4.175,0,0,1,2.824.985V.862Z" transform="translate(1.105 4.8)"/>
      <path id="Shape-3" data-name="Shape" class="cls-3" d="M4.788,13.785h0a1.711,1.711,0,0,1-1.719-1.846V0H0V12.185c0,3.323,1.842,4.431,4.665,4.431V13.785Z" transform="translate(23.941)"/>
      <path id="Shape-4" data-name="Shape" class="cls-3" d="M5.893,11.815A5.942,5.942,0,0,1,1.7,10.2,5.825,5.825,0,0,1,0,5.908,5.866,5.866,0,0,1,1.657,1.615,5.871,5.871,0,0,1,5.893,0a5.942,5.942,0,0,1,4.19,1.615,5.825,5.825,0,0,1,1.7,4.292,5.825,5.825,0,0,1-1.7,4.292A5.942,5.942,0,0,1,5.893,11.815Zm0-9.354c-1.636,0-2.824,1.4-2.824,3.323,0,1.988,1.135,3.324,2.824,3.324S8.717,7.772,8.717,5.784,7.582,2.461,5.893,2.461Z" transform="translate(11.05 4.923)"/>
      <path id="Shape-5" data-name="Shape" class="cls-3" d="M.246,10.954a6.812,6.812,0,0,0,3.683.862c2.578,0,4.42-1.108,4.42-3.569,0-1.969-.982-3.2-3.929-3.692-1.1-.246-1.473-.615-1.473-1.108s.491-.985,1.473-.985A5.292,5.292,0,0,1,7.612,3.569V.862A5.8,5.8,0,0,0,4.3,0C1.842,0,0,1.108,0,3.569,0,5.662,1.1,6.646,3.56,7.138c1.228.246,1.719.492,1.719,1.231s-.614.985-1.6.985A6.544,6.544,0,0,1,.123,8.123v2.831Z" transform="translate(34.867 4.677)"/>
      <path id="Shape-6" data-name="Shape" class="cls-3" d="M0,11.446H3.069V0H0Z" transform="translate(30.079 5.046)"/>
      <path id="Shape-7" data-name="Shape" class="cls-3" d="M1.473,0A1.5,1.5,0,0,0,0,1.477,1.5,1.5,0,0,0,1.473,2.954,1.5,1.5,0,0,0,2.947,1.477,1.42,1.42,0,0,0,1.473,0" transform="translate(30.202 0.615)"/>
      <path id="Shape-8" data-name="Shape" class="cls-3" d="M5.893,11.815A5.942,5.942,0,0,1,1.7,10.2,5.825,5.825,0,0,1,0,5.908,5.825,5.825,0,0,1,1.7,1.615,5.942,5.942,0,0,1,5.893,0a5.942,5.942,0,0,1,4.19,1.615,5.825,5.825,0,0,1,1.7,4.292,5.825,5.825,0,0,1-1.7,4.292A5.942,5.942,0,0,1,5.893,11.815Zm0-9.354c-1.636,0-2.824,1.4-2.824,3.323,0,1.988,1.135,3.324,2.824,3.324S8.717,7.772,8.717,5.784,7.582,2.461,5.893,2.461Z" transform="translate(76.61 4.923)"/>
      <path id="Shape-9" data-name="Shape" class="cls-3" d="M.246,10.954a6.812,6.812,0,0,0,3.683.862c2.578,0,4.42-1.108,4.42-3.569,0-1.969-.982-3.2-3.929-3.692-1.1-.246-1.473-.615-1.473-1.108s.491-.985,1.473-.985A5.292,5.292,0,0,1,7.612,3.569V.862A5.8,5.8,0,0,0,4.3,0C1.842,0,0,1.108,0,3.569,0,5.662,1.1,6.646,3.56,7.138c1.228.246,1.719.492,1.719,1.231s-.614.985-1.6.985A6.544,6.544,0,0,1,.123,8.123v2.831Z" transform="translate(43.952 4.677)"/>
      <path id="Shape-10" data-name="Shape" class="cls-3" d="M0,11.446H3.069V0H0Z" transform="translate(53.651 5.046)"/>
      <path id="Shape-11" data-name="Shape" class="cls-3" d="M1.473,0A1.5,1.5,0,0,0,0,1.477,1.5,1.5,0,0,0,1.473,2.954,1.5,1.5,0,0,0,2.947,1.477,1.5,1.5,0,0,0,1.473,0" transform="translate(53.774 0.615)"/>
      <path id="Shape-12" data-name="Shape" class="cls-3" d="M13.382,4.554c0-1.231-.491-1.846-1.719-1.846A3.506,3.506,0,0,0,9.576,3.2a2.463,2.463,0,0,1,.246,1.108v7.262H6.752V4.554c0-1.231-.614-1.846-1.719-1.846a7.414,7.414,0,0,0-1.842.246v8.615H0V.985A14.629,14.629,0,0,1,5.034,0,5.071,5.071,0,0,1,8.1.862,8.288,8.288,0,0,1,11.909,0c2.7,0,4.42.985,4.42,4.308v7.262H13.259V4.554Z" transform="translate(58.931 4.8)"/>
    </g>
  </g>
</svg>
