<svg xmlns="http://www.w3.org/2000/svg" width="64" height="64" fill="#fff" stroke="#fff" stroke-width="0" viewBox="0 0 48 48"><g data-name="Layer 2"><path fill="none" stroke="none" d="M0 0h48v48H0z" data-name="invisible box"/><g stroke="none" data-name="Q3 icons"><path d="m39.6 18.7.9-.2 3.3-.4A7.5 7.5 0 0 0 44 16a7.5 7.5 0 0 0-.2-2.1l-3.3-.4-.9-.2-.6-1.4.5-.8 2-2.7a13.3 13.3 0 0 0-2.9-2.9l-2.7 2-.8.5-1.4-.6-.2-.9-.4-3.3A7.5 7.5 0 0 0 31 3a7.5 7.5 0 0 0-2.1.2l-.4 3.3-.2.9-1.4.6-.8-.5-2.7-2a13.3 13.3 0 0 0-2.9 2.9l2 2.7.5.8-.6 1.4-.9.2-3.3.4A7.5 7.5 0 0 0 18 16a7.5 7.5 0 0 0 .2 2.1l3.3.4.9.2.6 1.4-.5.8-2 2.7a13.3 13.3 0 0 0 2.9 2.9l2.7-2 .8-.5 1.4.6.2.9.4 3.3a7.5 7.5 0 0 0 2.1.2 7.5 7.5 0 0 0 2.1-.2l.4-3.3.2-.9 1.4-.6.8.5 2.7 2a13.3 13.3 0 0 0 2.9-2.9l-2-2.7-.5-.8ZM31 20a4 4 0 1 1 4-4 4 4 0 0 1-4 4M16 35v6H8v-6zm2-4H6a2 2 0 0 0-2 2v10a2 2 0 0 0 2 2h12a2 2 0 0 0 2-2V33a2 2 0 0 0-2-2"/><path d="M18 7a2 2 0 0 0-2-2H6a2 2 0 0 0-2 2v18a2 2 0 0 0 2 2h10a2 2 0 0 0 2-2 2 2 0 0 0-2-2H8V9h8a2 2 0 0 0 2-2M36 33v8h-8v-8a2 2 0 0 0-2-2 2 2 0 0 0-2 2v10a2 2 0 0 0 2 2h12a2 2 0 0 0 2-2V33a2 2 0 0 0-2-2 2 2 0 0 0-2 2"/></g></g></svg>