<svg xmlns="http://www.w3.org/2000/svg" xml:space="preserve" width="50" height="50" fill="#fff" stroke="#fff" viewBox="0 0 512 512"><path d="M487.016 152.896H248.704c-13.776 0-24.984 11.44-24.984 25.488v155.232c0 14.056 11.208 25.488 24.984 25.488h238.312c13.776 0 24.984-11.44 24.984-25.488V178.384c0-14.048-11.208-25.488-24.984-25.488zm-22.864 32-96.296 75.664-96.296-75.664zM480 327.112H255.72V213.144l112.136 88.12L480 213.144zM0 170.136h175.672v32H0zM47.544 236.768h128.16v32H47.544zM95.592 312.144h80.08v32h-80.08z"/></svg>