<?xml version="1.0" standalone="no"?>
<!DOCTYPE svg PUBLIC "-//W3C//DTD SVG 20010904//EN"
 "http://www.w3.org/TR/2001/REC-SVG-20010904/DTD/svg10.dtd">
<svg version="1.0" xmlns="http://www.w3.org/2000/svg"
 width="512.000000pt" height="512.000000pt" viewBox="0 0 512.000000 512.000000"
 preserveAspectRatio="xMidYMid meet">

<g transform="translate(0.000000,512.000000) scale(0.100000,-0.100000)"
fill="#000000" stroke="none">
<path d="M2272 4455 c-216 -49 -401 -229 -457 -445 -32 -123 -17 -308 32 -405
21 -39 42 -54 76 -55 39 0 62 14 77 49 10 25 8 39 -14 104 -94 272 71 549 355
597 242 41 476 -135 512 -384 11 -76 4 -126 -34 -254 -12 -37 -11 -47 2 -70
19 -34 60 -49 96 -36 80 28 128 270 88 440 -50 214 -208 382 -423 450 -69 22
-234 27 -310 9z"/>
<path d="M1204 4250 c-26 -10 -266 -264 -276 -291 -5 -12 -5 -31 -2 -44 5 -22
157 -194 240 -272 42 -41 84 -44 119 -8 38 37 33 78 -16 136 -48 58 -59 53
146 69 148 12 165 17 189 52 22 31 20 62 -7 93 -21 25 -30 27 -192 42 -94 9
-172 17 -174 19 -2 2 15 24 38 49 32 35 41 52 41 80 0 33 -27 75 -49 75 -5 0
-15 2 -23 4 -7 3 -22 1 -34 -4z"/>
<path d="M3518 4244 c-28 -15 -44 -52 -39 -89 1 -11 21 -39 44 -62 22 -24 39
-44 36 -47 -2 -2 -80 -10 -174 -19 -162 -15 -171 -17 -192 -42 -23 -26 -29
-58 -17 -90 12 -30 60 -43 199 -55 204 -16 195 -12 146 -65 -34 -36 -41 -52
-41 -84 0 -31 6 -44 26 -60 51 -40 75 -30 172 72 178 185 182 191 182 231 0
33 -12 49 -127 172 -111 119 -154 155 -181 154 -4 -1 -19 -7 -34 -16z"/>
<path d="M2347 4086 c-65 -18 -116 -61 -149 -126 l-28 -54 0 -853 c0 -840 0
-853 -20 -873 -27 -27 -52 -25 -82 8 -14 15 -100 127 -191 248 -146 195 -171
224 -214 245 -71 35 -162 34 -226 -4 -93 -55 -141 -163 -116 -262 8 -32 70
-136 197 -329 101 -154 272 -418 379 -586 268 -419 258 -404 353 -504 150
-156 367 -278 575 -321 559 -118 1128 202 1308 735 58 171 60 187 64 707 5
562 5 565 -75 643 -77 75 -176 91 -271 44 -28 -15 -64 -42 -79 -60 -28 -35
-62 -44 -80 -21 -5 6 -13 33 -16 59 -16 110 -121 198 -237 198 -85 0 -190 -69
-219 -145 -6 -15 -17 -25 -29 -25 -16 0 -20 10 -26 59 -18 153 -149 253 -289
222 -105 -23 -177 -108 -191 -223 -4 -40 -11 -58 -21 -58 -12 0 -14 78 -14
538 0 339 -4 551 -10 574 -34 120 -170 196 -293 164z"/>
</g>
</svg>
