<svg xmlns="http://www.w3.org/2000/svg" width="682.667" height="682.667" version="1.0" viewBox="0 0 512 512"><path fill="#ffffff" d="M227.2 66.5c-21.6 4.9-40.1 22.9-45.7 44.5-3.2 12.3-1.7 30.8 3.2 40.5 2.1 3.9 4.2 5.4 7.6 5.5 3.9 0 6.2-1.4 7.7-4.9 1-2.5.8-3.9-1.4-10.4-9.4-27.2 7.1-54.9 35.5-59.7 24.2-4.1 47.6 13.5 51.2 38.4 1.1 7.6.4 12.6-3.4 25.4-1.2 3.7-1.1 4.7.2 7 1.9 3.4 6 4.9 9.6 3.6 8-2.8 12.8-27 8.8-44-5-21.4-20.8-38.2-42.3-45-6.9-2.2-23.4-2.7-31-.9M120.4 87c-2.6 1-26.6 26.4-27.6 29.1-.5 1.2-.5 3.1-.2 4.4.5 2.2 15.7 19.4 24 27.2 4.2 4.1 8.4 4.4 11.9.8 3.8-3.7 3.3-7.8-1.6-13.6-4.8-5.8-5.9-5.3 14.6-6.9 14.8-1.2 16.5-1.7 18.9-5.2 2.2-3.1 2-6.2-.7-9.3-2.1-2.5-3-2.7-19.2-4.2-9.4-.9-17.2-1.7-17.4-1.9s1.5-2.4 3.8-4.9c3.2-3.5 4.1-5.2 4.1-8 0-3.3-2.7-7.5-4.9-7.5-.5 0-1.5-.2-2.3-.4-.7-.3-2.2-.1-3.4.4M351.8 87.6c-2.8 1.5-4.4 5.2-3.9 8.9.1 1.1 2.1 3.9 4.4 6.2 2.2 2.4 3.9 4.4 3.6 4.7-.2.2-8 1-17.4 1.9-16.2 1.5-17.1 1.7-19.2 4.2-2.3 2.6-2.9 5.8-1.7 9 1.2 3 6 4.3 19.9 5.5 20.4 1.6 19.5 1.2 14.6 6.5-3.4 3.6-4.1 5.2-4.1 8.4 0 3.1.6 4.4 2.6 6 5.1 4 7.5 3 17.2-7.2 17.8-18.5 18.2-19.1 18.2-23.1 0-3.3-1.2-4.9-12.7-17.2-11.1-11.9-15.4-15.5-18.1-15.4-.4.1-1.9.7-3.4 1.6"/><path fill="#ffffff" d="M234.7 103.4c-6.5 1.8-11.6 6.1-14.9 12.6l-2.8 5.4v85.3c0 84 0 85.3-2 87.3-2.7 2.7-5.2 2.5-8.2-.8-1.4-1.5-10-12.7-19.1-24.8-14.6-19.5-17.1-22.4-21.4-24.5-7.1-3.5-16.2-3.4-22.6.4-9.3 5.5-14.1 16.3-11.6 26.2.8 3.2 7 13.6 19.7 32.9 10.1 15.4 27.2 41.8 37.9 58.6 26.8 41.9 25.8 40.4 35.3 50.4 15 15.6 36.7 27.8 57.5 32.1 55.9 11.8 112.8-20.2 130.8-73.5 5.8-17.1 6-18.7 6.4-70.7.5-56.2.5-56.5-7.5-64.3-7.7-7.5-17.6-9.1-27.1-4.4-2.8 1.5-6.4 4.2-7.9 6-2.8 3.5-6.2 4.4-8 2.1-.5-.6-1.3-3.3-1.6-5.9-1.6-11-12.1-19.8-23.7-19.8-8.5 0-19 6.9-21.9 14.5-.6 1.5-1.7 2.5-2.9 2.5-1.6 0-2-1-2.6-5.9-1.8-15.3-14.9-25.3-28.9-22.2-10.5 2.3-17.7 10.8-19.1 22.3-.4 4-1.1 5.8-2.1 5.8-1.2 0-1.4-7.8-1.4-53.8 0-33.9-.4-55.1-1-57.4-3.4-12-17-19.6-29.3-16.4"/></svg>