<?xml version="1.0" encoding="UTF-8"?>
<svg id="Calque_1" xmlns="http://www.w3.org/2000/svg" version="1.1" viewBox="0 0 595.28 841.89">
  <!-- Generator: Adobe Illustrator 29.1.0, SVG Export Plug-In . SVG Version: 2.1.0 Build 142)  -->
  <defs>
    <style>
      .st0 {
        fill: #fff;
      }
    </style>
  </defs>
  <path d="M473.36,59.77v60.98c0,2.34-5.84,8.5-7.99,8.5h-73.22v85.37l-22.38,51.37h13.75c3.39,0,8.39,5.97,8.58,10.04-1.26,22.29,1.87,47.5.08,69.44-.53,6.47-3.92,10.12-9.35,11.36l-35.31.22-36.29,61.9.02,38.48,263.12,135.67c3.12,1.84,5.27,5.61,5.74,9.63,2.02,17.13-1.35,39.13,0,56.78-.77,4.35-2.56,8.02-6.2,9.83l-268.3,138.56c-3.18,1.86-6.63,1.87-9.82,0L32.31,671.91c-4.69-2.66-9.58-4.25-10.93-11.02.98-18.23-1.82-39.62-.15-57.48.3-3.24,1.75-6.65,4-8.68l264.92-137.29.03-38.48-36.3-61.89-35.31-.22c-5.55-1.42-8.84-4.59-9.35-11.36-1.7-22.33,1.29-47.56.07-70.2.51-3.91,5.24-9.29,8.59-9.29h13.75l-22.38-51.37v-85.37h-73.22c-2.16,0-7.99-6.16-7.99-8.5v-59.87l-.96-1.11h-50.52c-.19,0-2.72-1.81-3.2-2.22-7.17-6.23-4.83-18.29,3.48-21.1l446.09-.33c9.43,1.17,12.71,14.85,5.11,21.44-.47.41-3.01,2.22-3.2,2.22h-51.48ZM168.32,59.77h-19.82v45.83h19.82v-45.83ZM209.25,59.77h-19.5l-.96,1.11v43.61l.96,1.11h18.55l.96-1.11v-44.72ZM249.54,59.77h-19.82v44.72l.96,1.11h18.87v-45.83ZM270.64,105.59h18.87l.96-1.11v-43.61l-.96-1.11h-18.87v45.83ZM330.76,59.77h-19.82v44.72l.96,1.11h17.91l.96-1.11v-44.72ZM371.68,59.77h-19.82v45.83h18.87l.96-1.11v-44.72ZM411.97,59.77h-19.82v44.72l.96,1.11h18.87v-45.83ZM452.9,59.77h-19.82v45.83h18.87l.96-1.11v-44.72ZM371.68,129.25h-141.97v70.22h141.97v-70.22ZM364.65,223.12h-127.9l17.33,41.69,2.14,1.23,90.12-.14,18.31-42.77ZM371.68,332.51v-41.76l-.96-1.11h-140.05l-.96,1.11v41.76h141.97ZM304.56,754.21l-6.11.36L41.7,622.99v26.98l258.78,133.94,258.58-132.83v-28.09c-5.36,3.85-254.5,131.22-254.5,131.22Z"/>
  <path class="st0" d="M290.47,484.03v95.35c-12.45,1.65-28.75,10.41-26.8,27.66,3.27,28.92,65.13,30.7,73.15,3.36,5.44-18.55-12.49-29.46-25.88-31.02v-95.35c55.21,28.08,110.37,56.37,165.42,84.87,9.35,4.84,18.53,10.31,27.91,15.04,2.93,1.48,27.25,12.7,29.2,15.03.31.36,7.33,3.87,8.04,4.02.93.19-81.83,43.99-91.28,48.9-.67.35-100.26,52.89-149.84,77.58l-243.34-124.98,233.41-120.47ZM241.69,535.21c-7.53,1.8-9.41,13.51-4.3,20.15,2.28,2.97,13.42,14.82,16.05,16.19,9.19,4.76,18.37-7.25,13.02-17.26-1.17-2.19-13.61-15.81-15.67-17.36-2.51-1.89-6.2-2.41-9.1-1.71ZM351.68,535.21c-1.8.43-4.74,3.2-6.23,4.62-2.42,2.31-12.86,13.58-13.57,16.1-3.3,11.67,6.67,21.13,15.71,14.46,2.47-1.82,12.54-12.9,14.51-15.75,6.63-9.59-.41-21.85-10.42-19.44ZM212.93,592.14c-12.83,2.18-12.65,22.49.47,24.2,4.77.62,17.65.67,22.33-.07,10.4-1.64,13.28-17.71,3.82-22.77-4.18-2.24-21.65-2.21-26.62-1.37ZM357.2,613.12c.66.71,2.14,1.73,2.99,2.09,4.14,1.77,21.56,1.74,26.36.93,10.95-1.85,12.29-19.12,2.53-23.24-3.75-1.58-21.45-1.52-25.86-.77-8.7,1.49-12.91,13.67-6.02,20.98ZM524.53,593.43"/>
  <rect class="st0" x="229.71" y="129.25" width="141.97" height="70.22"/>
  <polygon class="st0" points="371.68 332.51 229.71 332.51 229.71 290.75 230.67 289.64 370.72 289.64 371.68 290.75 371.68 332.51"/>
  <polygon class="st0" points="364.65 223.12 346.34 265.89 256.22 266.03 254.08 264.8 236.75 223.12 364.65 223.12"/>
  <polygon class="st0" points="209.25 59.77 209.25 104.48 208.29 105.59 189.74 105.59 188.79 104.48 188.79 60.87 189.74 59.77 209.25 59.77"/>
  <rect class="st0" x="148.5" y="59.77" width="19.82" height="45.83"/>
  <polygon class="st0" points="249.54 59.77 249.54 105.59 230.67 105.59 229.71 104.48 229.71 59.77 249.54 59.77"/>
  <polygon class="st0" points="371.68 59.77 371.68 104.48 370.72 105.59 351.86 105.59 351.86 59.77 371.68 59.77"/>
  <polygon class="st0" points="411.97 59.77 411.97 105.59 393.11 105.59 392.15 104.48 392.15 59.77 411.97 59.77"/>
  <polygon class="st0" points="452.9 59.77 452.9 104.48 451.94 105.59 433.08 105.59 433.08 59.77 452.9 59.77"/>
  <polygon class="st0" points="270.64 105.59 270.64 59.77 289.51 59.77 290.47 60.87 290.47 104.48 289.51 105.59 270.64 105.59"/>
  <polygon class="st0" points="330.76 59.77 330.76 104.48 329.8 105.59 311.89 105.59 310.93 104.48 310.93 59.77 330.76 59.77"/>
  <path d="M212.93,592.14c4.97-.85,22.44-.87,26.62,1.37,9.46,5.06,6.58,21.13-3.82,22.77-4.68.74-17.56.69-22.33.07-13.12-1.71-13.3-22.02-.47-24.2Z"/>
  <path d="M357.2,613.12c-6.89-7.31-2.68-19.5,6.02-20.98,4.41-.75,22.11-.81,25.86.77,9.76,4.11,8.42,21.39-2.53,23.24-4.8.81-22.23.84-26.36-.93-.85-.36-2.32-1.39-2.99-2.09Z"/>
  <path d="M241.69,535.21c2.9-.7,6.59-.18,9.1,1.71,2.06,1.56,14.5,15.18,15.67,17.36,5.35,10.02-3.83,22.02-13.02,17.26-2.63-1.36-13.77-13.22-16.05-16.19-5.12-6.64-3.23-18.35,4.3-20.15Z"/>
  <path d="M351.68,535.21c10.02-2.41,17.05,9.84,10.42,19.44-1.97,2.85-12.03,13.93-14.51,15.75-9.05,6.67-19.01-2.8-15.71-14.46.71-2.52,11.15-13.78,13.57-16.1,1.49-1.42,4.42-4.19,6.23-4.62Z"/>
  <path d="M530.92,597.12"/>
</svg>