<svg fill="#000000" height="64px" width="64px" version="1.1" id="Capa_1" xmlns="http://www.w3.org/2000/svg" xmlns:xlink="http://www.w3.org/1999/xlink" viewBox="0 0 488 488" xml:space="preserve" stroke="none">
  <g id="SVGRepo_iconCarrier">
    <g>
      <g>
        <path d="M431.55,449.3V235.8c0-21.3-17.4-38.7-38.7-38.7h-1.3v-50.4C391.45,65.8,325.65,0,244.75,0S98.05,65.8,98.05,146.7v50.4h-2.9c-21.3,0-38.7,17.4-38.7,38.7v213.5c0,21.3,17.4,38.7,38.7,38.7h297.7C414.15,488,431.55,470.6,431.55,449.3z M162.25,146.7c0-45.5,37-82.5,82.5-82.5s82.5,37,82.5,82.5v50.4h-165V146.7z M99.H99.05z M162.05,445.3l-63-80.6v-15.6h21.6l75.2,96.2H162.05z M229.65,445.3l-75.2-96.2h33.8l75.2,96.2H229.65z M297.15,445z M388.85,445.3h-24.1l-75.2-96.2h33.8l65.5,83.8L388.85,445.3L388.85,445.3z M388.85,389.7l-31.7-40.6h31.7V389.7z" fill="#000000"/>
      </g>
    </g>
  </g>
</svg>
