<svg xmlns="http://www.w3.org/2000/svg" viewBox="0 0 24 24">
    <path fill="#ffffff" fill-rule="evenodd" d="M22.503 22.461c-.06.067-.189.181-.39.181H1.885c-.2 0-.33-.114-.389-.181-.062-.068-.16-.218-.135-.429.605-4.904 3.413-8.205 7.52-8.849.934.496 1.994.781 3.118.781 1.122 0 2.18-.284 3.113-.778 4.051.641 6.927 4.006 7.524 8.845.026.212-.072.362-.134.43M6.543 6.982c0-3.101 2.448-5.624 5.457-5.624 3.01 0 5.457 2.523 5.457 5.624 0 3.101-2.448 5.623-5.457 5.623s-5.457-2.522-5.457-5.623m17.442 14.883c-.612-4.963-3.394-8.56-7.395-9.737 1.363-1.277 2.225-3.108 2.225-5.146C18.815 3.132 15.758 0 12 0 8.242 0 5.185 3.132 5.185 6.982c0 2.038.862 3.869 2.226 5.146C3.413 13.305.625 16.911.014 21.866c-.067.541.103 1.086.465 1.495.36.407.872.639 1.407.639h20.226c.537 0 1.05-.232 1.41-.64.361-.409.53-.954.463-1.495"/>
</svg>