<svg xmlns="http://www.w3.org/2000/svg" width="22" height="24" viewBox="0 0 22 24">
    <path fill="#ffffff" fill-rule="evenodd" d="M20.653 22.642H1.346V6.793h4.94V8.83h1.346V6.793h6.735V8.83h1.347V6.793h4.939v15.849zM7.632 4.755c0-1.873 1.511-3.396 3.368-3.396 1.856 0 3.367 1.523 3.367 3.396v.679H7.632v-.679zm13.544.679h-5.462v-.679C15.714 2.133 13.599 0 11 0 8.4 0 6.286 2.133 6.286 4.755v.679H.823c-.454 0-.823.373-.823.831V23.17c0 .458.369.83.823.83h20.353c.455 0 .824-.372.824-.83V6.265c0-.458-.369-.831-.824-.831z"/>
</svg>